<?xml version="1.0" standalone="no"?>
<!DOCTYPE svg PUBLIC "-//W3C//DTD SVG 20010904//EN"
 "http://www.w3.org/TR/2001/REC-SVG-20010904/DTD/svg10.dtd">
<svg version="1.0" xmlns="http://www.w3.org/2000/svg"
 width="96.000000pt" height="96.000000pt" viewBox="0 0 96.000000 96.000000"
 preserveAspectRatio="xMidYMid meet">
<metadata>
Created by potrace 1.11, written by Peter Selinger 2001-2013
</metadata>
<g transform="translate(0.000000,96.000000) scale(0.100000,-0.100000)"
fill="#000000" stroke="none">
<path d="M213 942 c-69 -24 -117 -58 -151 -107 -55 -78 -57 -90 -57 -360 0
-242 1 -252 23 -297 32 -64 85 -116 151 -147 56 -26 58 -26 301 -26 243 0 245
0 301 26 66 31 119 83 151 147 22 45 23 55 23 302 0 247 -1 257 -23 302 -32
64 -85 116 -151 147 -55 25 -62 26 -286 29 -201 2 -236 0 -282 -16z m526 -38
c73 -21 144 -92 165 -165 23 -76 23 -442 0 -518 -21 -73 -92 -144 -165 -165
-76 -23 -442 -23 -518 0 -73 21 -144 92 -165 165 -23 76 -23 442 0 518 21 71
92 144 160 165 72 22 450 22 523 0z"/>
<path d="M221 822 c-19 -9 -48 -34 -65 -55 l-31 -39 0 -248 0 -248 31 -39 c56
-70 70 -73 324 -73 254 0 268 3 324 73 l31 39 0 248 0 248 -31 39 c-56 70 -70
73 -324 73 -194 0 -230 -2 -259 -18z m217 -102 l34 -21 42 21 c103 50 217 -1
246 -110 30 -111 -69 -271 -224 -364 l-59 -35 -50 27 c-28 15 -83 59 -122 97
-56 54 -77 83 -94 128 -45 124 -17 222 77 264 43 19 113 15 150 -7z"/>
<path d="M330 656 c-43 -14 -73 -66 -64 -111 15 -78 89 -173 172 -222 l43 -25
42 27 c99 65 160 156 161 238 1 41 -3 52 -27 73 -41 35 -98 33 -139 -6 -38
-36 -48 -37 -77 -6 -33 35 -70 46 -111 32z"/>
</g>
</svg>
